<svg width="80" height="80" viewBox="0 0 80 80" fill="none" xmlns="http://www.w3.org/2000/svg">
<rect width="80" height="80" rx="40" fill="#F9FAFB"/>
<path d="M30.6275 51.5166C31.3386 49.6036 32.618 47.9539 34.2939 46.7892C35.9697 45.6245 37.9618 45.0005 40.0025 45.001C42.0432 45.0016 44.035 45.6266 45.7102 46.7922C47.3854 47.9578 48.6639 49.6082 49.374 51.5216M53.332 41.6667C53.332 50.0003 47.4992 54.1671 40.5666 56.5839C40.2036 56.7069 39.8092 56.701 39.45 56.5672C32.5007 54.1671 26.668 50.0003 26.668 41.6667V29.9997C26.668 29.5576 26.8435 29.1337 27.1561 28.8211C27.4686 28.5085 27.8925 28.3329 28.3345 28.3329C31.6675 28.3329 35.8337 26.3329 38.7334 23.7995C39.0865 23.4978 39.5356 23.332 40 23.332C40.4643 23.332 40.9135 23.4978 41.2665 23.7995C44.1829 26.3495 48.3325 28.3329 51.6655 28.3329C52.1075 28.3329 52.5313 28.5085 52.8439 28.8211C53.1564 29.1337 53.332 29.5576 53.332 29.9997V41.6667ZM46.666 38.3325C46.666 42.0145 43.6815 44.9994 40 44.9994C36.3184 44.9994 33.334 42.0145 33.334 38.3325C33.334 34.6505 36.3184 31.6656 40 31.6656C43.6815 31.6656 46.666 34.6505 46.666 38.3325Z" stroke="#4CAF50" stroke-width="2" stroke-linecap="round"/>
</svg>
