<svg width="44" height="44" viewBox="0 0 44 44" fill="none" xmlns="http://www.w3.org/2000/svg">
<rect width="44" height="44" rx="12" fill="#F3F4F6"/>
<path d="M12.0996 20.9001H15.3996C15.9831 20.9001 16.5427 21.1319 16.9552 21.5445C17.3678 21.9571 17.5996 22.5167 17.5996 23.1002V26.4005C17.5996 26.984 17.3678 27.5436 16.9552 27.9563C16.5427 28.3689 15.9831 28.6007 15.3996 28.6007H14.2996C13.7161 28.6007 13.1566 28.3689 12.744 27.9563C12.3314 27.5436 12.0996 26.984 12.0996 26.4005V20.9001ZM12.0996 20.9001C12.0996 19.5999 12.3557 18.3124 12.8532 17.1112C13.3507 15.91 14.08 14.8185 14.9993 13.8991C15.9186 12.9798 17.0099 12.2505 18.211 11.7529C19.4122 11.2554 20.6995 10.9993 21.9996 10.9993C23.2997 10.9993 24.5871 11.2554 25.7882 11.7529C26.9893 12.2505 28.0807 12.9798 29 13.8991C29.9193 14.8185 30.6485 15.91 31.146 17.1112C31.6435 18.3124 31.8996 19.5999 31.8996 20.9001M31.8996 20.9001V26.4005M31.8996 20.9001H28.5996C28.0161 20.9001 27.4566 21.1319 27.044 21.5445C26.6314 21.9571 26.3996 22.5167 26.3996 23.1002V26.4005C26.3996 26.984 26.6314 27.5436 27.044 27.9563C27.4566 28.3689 28.0161 28.6007 28.5996 28.6007H29.6996C30.2831 28.6007 30.8427 28.3689 31.2552 27.9563C31.6678 27.5436 31.8996 26.984 31.8996 26.4005M31.8996 26.4005V28.6007C31.8996 29.7677 31.436 30.887 30.6109 31.7122C29.7857 32.5374 28.6666 33.001 27.4996 33.001H21.9996" stroke="#64748B" stroke-width="2" stroke-linecap="round"/>
</svg>
