<svg width="44" height="44" viewBox="0 0 44 44" fill="none" xmlns="http://www.w3.org/2000/svg">
<rect width="44" height="44" rx="12" fill="#F3F4F6"/>
<path d="M26.4003 31.9001V29.7001C26.4003 28.5331 25.9366 27.414 25.1114 26.5888C24.2862 25.7637 23.1669 25.3001 21.9999 25.3001H15.3994C14.2323 25.3001 13.1131 25.7637 12.2879 26.5888C11.4626 27.414 10.999 28.5331 10.999 29.7001V31.9001M26.4003 12.2408C27.3439 12.4854 28.1795 13.0364 28.7761 13.8073C29.3727 14.5782 29.6963 15.5253 29.6963 16.5C29.6963 17.4747 29.3727 18.4219 28.7761 19.1928C28.1795 19.9636 27.3439 20.5146 26.4003 20.7592M33.0008 31.9V29.7C33.0001 28.7251 32.6755 27.778 32.0782 27.0075C31.4809 26.237 30.6445 25.6867 29.7005 25.443M23.1 16.5001C23.1 18.9301 21.1299 20.9001 18.6996 20.9001C16.2694 20.9001 14.2993 18.9301 14.2993 16.5001C14.2993 14.07 16.2694 12.1001 18.6996 12.1001C21.1299 12.1001 23.1 14.07 23.1 16.5001Z" stroke="#64748B" stroke-width="2" stroke-linecap="round"/>
</svg>
