<svg width="44" height="44" viewBox="0 0 44 44" fill="none" xmlns="http://www.w3.org/2000/svg">
<rect width="44" height="44" rx="12" fill="#F3F4F6"/>
<path d="M21.6935 11.087C21.6012 11.1443 21.5267 11.2263 21.4785 11.3237L18.9386 16.4706C18.7711 16.8096 18.5237 17.103 18.2176 17.3252C17.9116 17.5475 17.5562 17.6921 17.1819 17.7465L11.5004 18.577C11.3923 18.5923 11.2906 18.6377 11.207 18.7079C11.1234 18.7782 11.0612 18.8705 11.0275 18.9744C10.9938 19.0782 10.9899 19.1895 11.0164 19.2954C11.0428 19.4014 11.0985 19.4978 11.177 19.5737L15.2866 23.5744C15.5579 23.8385 15.7608 24.1647 15.8779 24.5248C15.995 24.8849 16.0227 25.2681 15.9587 25.6412L14.9896 31.2941C14.9707 31.4016 14.9824 31.5122 15.0233 31.6134C15.0642 31.7146 15.1327 31.8022 15.2209 31.8664C15.3092 31.9306 15.4137 31.9687 15.5225 31.9764C15.6313 31.9842 15.7402 31.9612 15.8366 31.9101L20.9153 29.2393C21.25 29.0636 21.6224 28.9718 22.0005 28.9718C22.3785 28.9718 22.7509 29.0636 23.0856 29.2393L28.1654 31.9101C28.2619 31.9615 28.3708 31.9847 28.4799 31.9771C28.5889 31.9695 28.6936 31.9315 28.782 31.8672C28.8704 31.803 28.939 31.7152 28.9799 31.6139C29.0209 31.5126 29.0325 31.4018 29.0135 31.2941L28.0433 25.6402C27.9796 25.2671 28.0074 24.8842 28.1245 24.5243C28.2416 24.1645 28.4444 23.8385 28.7154 23.5744L32.825 19.5725C32.9029 19.4966 32.958 19.4004 32.984 19.2947C33.0101 19.1891 33.0061 19.0783 32.9724 18.9748C32.9388 18.8714 32.8768 18.7794 32.7936 18.7093C32.7104 18.6392 32.6093 18.5938 32.5016 18.5782L26.819 17.7465C26.4451 17.6917 26.0902 17.5469 25.7846 17.3246C25.479 17.1024 25.2319 16.8093 25.0645 16.4706L22.5235 11.3237C22.4753 11.2263 22.4008 11.1443 22.3085 11.087C22.2162 11.0296 22.1097 10.9993 22.001 10.9993C21.8923 10.9993 21.7858 11.0296 21.6935 11.087Z" stroke="#64748B" stroke-width="2" stroke-linecap="round"/>
</svg>
