<svg width="44" height="44" viewBox="0 0 44 44" fill="none" xmlns="http://www.w3.org/2000/svg">
<rect width="44" height="44" rx="12" fill="#F3F4F6"/>
<path d="M20.093 31.901C20.2861 32.2355 20.5639 32.5132 20.8983 32.7063C21.2327 32.8994 21.6121 33.001 21.9983 33.001C22.3844 33.001 22.7638 32.8994 23.0982 32.7063C23.4327 32.5132 23.7104 32.2355 23.9035 31.901M21.647 11.0089C19.96 11.099 18.3717 11.8327 17.2093 13.0588C16.047 14.2849 15.399 15.91 15.3989 17.5996C15.3989 22.5489 13.8467 24.1517 12.387 25.6589C12.2433 25.8164 12.1485 26.0123 12.114 26.2227C12.0796 26.4331 12.1071 26.649 12.1931 26.8441C12.2791 27.0392 12.4199 27.2051 12.5985 27.3216C12.7771 27.4382 12.9856 27.5003 13.1988 27.5004H30.7992C31.0124 27.5005 31.221 27.4386 31.3997 27.3223C31.5783 27.206 31.7194 27.0403 31.8056 26.8453C31.8918 26.6504 31.9196 26.4345 31.8854 26.2241C31.8512 26.0136 31.7567 25.8177 31.6132 25.66C30.7068 24.7249 29.7674 23.7557 29.1822 21.9769M31.8989 14.2995C31.8989 16.1222 30.4215 17.5998 28.5989 17.5998C26.7763 17.5998 25.2988 16.1222 25.2988 14.2995C25.2988 12.4769 26.7763 10.9993 28.5989 10.9993C30.4215 10.9993 31.8989 12.4769 31.8989 14.2995Z" stroke="#64748B" stroke-width="2" stroke-linecap="round"/>
</svg>
