<svg width="44" height="44" viewBox="0 0 44 44" fill="none" xmlns="http://www.w3.org/2000/svg">
<rect width="44" height="44" rx="12" fill="#F3F4F6"/>
<path d="M21.9998 27.499V16.4992M26.3994 17.5992H19.8C19.2166 17.5992 18.6571 17.8309 18.2445 18.2435C17.832 18.6561 17.6002 19.2157 17.6002 19.7991C17.6002 20.3826 17.832 20.9422 18.2445 21.3547C18.6571 21.7673 19.2166 21.9991 19.8 21.9991H24.1996C24.783 21.9991 25.3425 22.2309 25.7551 22.6435C26.1676 23.056 26.3994 23.6156 26.3994 24.1991C26.3994 24.7825 26.1676 25.3421 25.7551 25.7547C25.3425 26.1672 24.783 26.399 24.1996 26.399H17.6002M13.2007 12.0989C13.2007 11.8072 13.3166 11.5274 13.5228 11.3211C13.7291 11.1148 14.0089 10.9989 14.3006 10.9989C14.5729 10.9974 14.84 11.0737 15.0705 11.2189L16.0967 11.8789C16.3266 12.0258 16.5938 12.1039 16.8666 12.1039C17.1395 12.1039 17.4066 12.0258 17.6365 11.8789L18.6638 11.2189C18.8938 11.072 19.1609 10.9939 19.4338 10.9939C19.7066 10.9939 19.9738 11.072 20.2037 11.2189L21.2299 11.8789C21.4598 12.0258 21.727 12.1039 21.9998 12.1039C22.2727 12.1039 22.5398 12.0258 22.7697 11.8789L23.7959 11.2189C24.0258 11.072 24.293 10.9939 24.5658 10.9939C24.8387 10.9939 25.1059 11.072 25.3358 11.2189L26.3631 11.8789C26.593 12.0258 26.8601 12.1039 27.133 12.1039C27.4058 12.1039 27.673 12.0258 27.9029 11.8789L28.9291 11.2189C29.1596 11.0737 29.4267 10.9974 29.699 10.9989C29.9907 10.9989 30.2705 11.1148 30.4768 11.3211C30.683 11.5274 30.7989 11.8072 30.7989 12.0989V31.8986C30.7989 32.1903 30.683 32.4701 30.4768 32.6764C30.2705 32.8827 29.9907 32.9986 29.699 32.9986C29.4267 33.0001 29.1596 32.9237 28.9291 32.7786L27.9029 32.1186C27.673 31.9716 27.4058 31.8936 27.133 31.8936C26.8601 31.8936 26.593 31.9716 26.3631 32.1186L25.3358 32.7786C25.1059 32.9255 24.8387 33.0036 24.5658 33.0036C24.293 33.0036 24.0258 32.9255 23.7959 32.7786L22.7697 32.1186C22.5398 31.9716 22.2727 31.8936 21.9998 31.8936C21.727 31.8936 21.4598 31.9716 21.2299 32.1186L20.2037 32.7786C19.9738 32.9255 19.7066 33.0036 19.4338 33.0036C19.1609 33.0036 18.8938 32.9255 18.6638 32.7786L17.6365 32.1186C17.4066 31.9716 17.1395 31.8936 16.8666 31.8936C16.5938 31.8936 16.3266 31.9716 16.0967 32.1186L15.0705 32.7786C14.84 32.9237 14.5729 33.0001 14.3006 32.9986C14.0089 32.9986 13.7291 32.8827 13.5228 32.6764C13.3166 32.4701 13.2007 32.1903 13.2007 31.8986V12.0989Z" stroke="#64748B" stroke-width="2" stroke-linecap="round"/>
</svg>
