<svg width="44" height="44" viewBox="0 0 44 44" fill="none" xmlns="http://www.w3.org/2000/svg">
<rect width="44" height="44" rx="12" fill="#F3F4F6"/>
<path d="M21.9996 16.4993V31.8993M21.9996 16.4993C21.6017 14.8596 20.9166 13.4583 20.0336 12.4772C19.1506 11.4961 18.1108 10.9813 17.0496 10.9997C16.3203 10.9997 15.6208 11.2895 15.1051 11.8052C14.5893 12.3209 14.2996 13.0204 14.2996 13.7497C14.2996 14.4791 14.5893 15.1786 15.1051 15.6943C15.6208 16.21 16.3203 16.4997 17.0496 16.4997M21.9996 16.4993C22.3975 14.8596 23.0826 13.4583 23.9656 12.4772C24.8486 11.4961 25.8885 10.9813 26.9496 10.9997C27.679 10.9997 28.3784 11.2895 28.8942 11.8052C29.4099 12.3209 29.6996 13.0204 29.6996 13.7497C29.6996 14.4791 29.4099 15.1786 28.8942 15.6943C28.3784 16.21 27.679 16.4997 26.9496 16.4997M30.7996 20.8993V29.6993C30.7996 30.2827 30.5678 30.8423 30.1552 31.2549C29.7427 31.6675 29.1831 31.8993 28.5996 31.8993H15.3996C14.8161 31.8993 14.2566 31.6675 13.844 31.2549C13.4314 30.8423 13.1996 30.2827 13.1996 29.6993V20.8993M30.7996 20.8993C31.4071 20.8993 31.8996 20.4068 31.8996 19.7993V17.5993C31.8996 16.9918 31.4071 16.4993 30.7996 16.4993H13.1996C12.5921 16.4993 12.0996 16.9918 12.0996 17.5993V19.7993C12.0996 20.4068 12.5921 20.8993 13.1996 20.8993M30.7996 20.8993H13.1996" stroke="#64748B" stroke-width="2" stroke-linecap="round"/>
</svg>
